PathFileType	4	(X/Y/Z)	D:\Long Term Storage\D'Arcy Smith\Coord6.trc
DataRate	CameraRate	NumFrames	NumMarkers	Units	OrigDataRate	OrigDataStartFrame	OrigNumFrames
120.00	120.00	      85	4	mm	120.00	1216	      4863
Frame#	Time	M1			M2			M3			M4			
		X1	Y1	Z1	X2	Y2	Z2	X3	Y3	Z3	X4	Y4	Z4	

1216	10.125	1129.72461	382.23621	280.74176	1632.82593	437.84314	251.06024							
1217	10.133	1130.82324	387.04074	273.37366	1633.77686	436.54990	252.64389							
1218	10.142	1131.52417	391.33755	266.76981	1634.65894	435.06516	254.14993							
1219	10.150	1132.90308	395.81854	258.55798	1635.99268	432.79837	257.06461							
1220	10.158	1132.28320	399.41568	254.37859	1636.78040	430.25406	259.44479							
1221	10.167	1133.38428	402.56815	250.02882	1637.54285	427.30707	262.11533							
1222	10.175	1131.63574	404.83997	247.13290	1638.13171	423.81210	264.53802							
1223	10.183	1131.33813	406.66949	244.68927	1639.38989	420.09216	268.55423							
1224	10.192	1130.22009	407.89413	243.26376	1640.01123	415.92056	272.08618							
1225	10.200	1129.64526	408.18155	242.69231	1641.08594	410.92252	275.70377							
1226	10.208	1126.70361	408.09778	243.33755	1641.00610	405.96164	279.96381							
1227	10.217	1125.53333	406.88019	244.09276	1642.74377	400.20016	284.75409							
1228	10.225	1124.19678	405.25375	245.76797	1642.46948	394.40384	290.04248							
1229	10.233	1121.97144	402.87085	248.35472	1643.13770	388.07254	295.95822							
1230	10.242	1119.46985	399.82687	251.79514	1643.53027	381.52902	302.37808							
1231	10.250	1117.15918	396.49280	255.50102	1644.02673	374.92773	309.79214							
1232	10.258	1115.33777	392.49081	258.71545	1644.49292	368.12164	318.01212							
1233	10.267	1112.46838	387.84082	265.98056	1644.86316	361.43179	327.03116							
1234	10.275	1109.56128	383.18359	271.76151	1645.04163	354.70276	336.89310							
1235	10.283	1106.90686	378.10550	277.80322	1645.44800	348.11807	347.24506							
1236	10.292	1104.92102	373.79590	284.31909	1645.50879	341.86179	358.61752							
1237	10.300	1101.81018	367.79819	291.64035	1645.98682	336.06693	371.26236							
1238	10.308	1099.13110	362.38022	299.37442	1646.16711	330.37039	383.83191							
1239	10.317	1096.94849	356.93692	307.24829	1646.06067	325.13141	397.14029							
1240	10.325	1094.33630	351.35486	316.13159	1645.40063	319.44379	409.03455							
1241	10.333	1091.97913	346.00739	325.58673	1645.38013	315.81339	423.83536							
1242	10.342	1089.68823	340.33215	335.28653	1644.68445	311.87195	437.25409							
1243	10.350	1087.14746	335.04758	345.67575	1644.37427	308.66452	452.36115							
1244	10.358	1085.14038	329.88327	356.49728	1643.46997	305.53867	466.35605							
1245	10.367	1082.89172	324.85785	367.82642	1642.73083	303.80670	481.42615							
1246	10.375	1080.93726	319.92010	379.58221	1642.00281	302.25827	495.51010							
1247	10.383	1078.44263	315.64569	392.05295	1640.55994	301.76193	509.97278							
1248	10.392	1076.31885	311.39621	404.90350	1639.33594	301.25735	523.24951							
1249	10.400	1074.11340	307.55063	418.12119	1637.80469	302.28003	537.14105							
1250	10.408	1071.61572	304.50385	431.59579	1636.22192	303.51263	549.93176							
1251	10.417	1069.00354	302.61966	445.78387	1634.86682	305.12930	562.26453							
1252	10.425	1066.87219	300.94962	459.07779	1632.79688	306.81366	573.38318							
1253	10.433	1064.33386	299.93057	473.26016	1631.02673	309.17358	583.71063							
1254	10.442	1061.86621	299.47617	487.17029	1629.54126	311.83206	593.84631							
1255	10.450	1059.37170	299.80154	501.39365	1627.93970	314.47952	602.95972							
1256	10.458	1057.31543	300.66507	514.82544	1626.24927	316.79803	611.44366							
1257	10.467	1055.20850	302.26102	528.08356	1625.09827	319.47067	619.46887							
1258	10.475	1053.01453	303.69101	540.90747	1623.61084	321.50906	626.32629							
1259	10.483	1051.03162	306.25323	553.81732	1622.50305	323.26303	632.43921							
1260	10.492	1048.78540	309.13461	565.67017	1621.34253	324.80252	637.99304							
1261	10.500	1046.51855	312.04019	576.92914	1620.63684	326.31924	642.80975							
1262	10.508	1044.62256	315.55200	587.92737	1619.49121	326.94907	646.93719							
1263	10.517	1042.57373	318.76917	597.77740	1618.74976	327.88654	650.50629							
1264	10.525	1039.92493	322.80011	607.37714	1618.23572	328.69608	653.45508							
1265	10.533	1037.93323	326.25891	616.47070	1617.71326	329.37024	655.72400							
1266	10.542	1036.01831	329.88364	625.14746	1617.24072	329.77243	657.30792							
1267	10.550	1033.92017	333.03537	632.76874	1616.86072	330.16281	658.16418							
1268	10.558	1032.12573	336.56537	639.85974	1616.55530	330.48050	658.14081							
1269	10.567	1030.67212	340.24088	646.40521	1616.39417	330.69211	657.39374							
1270	10.575	1029.07507	343.60944	652.20557	1616.33667	330.83932	655.70917							
1271	10.583	1027.71191	347.19101	657.18469	1616.38708	330.81418	653.10010							
1272	10.592	1026.50122	350.64914	661.62140	1616.42261	330.66870	649.65692							
1273	10.600	1025.48889	353.79736	665.07703	1616.28284	329.77698	644.71716							
1274	10.608	1024.50220	356.53180	667.80908	1617.13416	329.86703	639.67908							
1275	10.617	1024.25757	358.39975	669.48462	1616.98303	328.04123	632.19446							
1276	10.625	1023.36438	360.79568	670.53479	1617.30066	326.83109	624.38202							
1277	10.633	1022.95288	362.00952	670.70740	1617.51062	324.75327	614.74164							
1278	10.642	1022.74469	362.53534	670.09760	1617.65149	322.62891	604.14398							
1279	10.650	1022.78644	362.79196	668.52875	1617.70996	321.63596	592.94861							
1280	10.658	1023.05267	362.50650	666.34845	1617.71130	319.11148	579.97107							
1281	10.667	1023.58325	361.69409	663.48358	1617.61206	316.41483	565.29474							
1282	10.675	1024.27612	360.42276	659.77710	1617.65906	314.74432	551.76782							
1283	10.683	1025.38672	358.73892	655.49628	1617.63770	313.04971	536.07794							
1284	10.692	1026.67578	356.72986	650.75128	1617.49011	311.88071	520.44635							
1285	10.700	1028.25134	354.11758	645.07916	1617.03638	311.40454	504.41501							
1286	10.708	1029.89514	351.73837	638.75220	1617.02734	312.27853	488.04990							
1287	10.717	1032.03125	349.19650	631.86804	1617.09058	313.22577	472.54498							
1288	10.725	1034.77771	345.77341	624.39618	1617.55786	314.61224	455.98480							
1289	10.733	1037.44214	342.89264	616.49945	1617.79260	317.50885	441.08078							
1290	10.742	1040.27905	339.82358	607.84973	1617.55652	320.79807	424.25012							
1291	10.750	1043.21631	336.69174	598.80975	1617.47363	324.91373	408.68735							
1292	10.758	1046.74854	333.76767	589.48138	1617.05273	329.04959	393.84381							
1293	10.767	1050.20068	331.11707	579.25336	1617.25781	334.73486	378.57999							
1294	10.775	1053.93860	328.69339	569.03064	1617.16907	340.21063	364.53610							
1295	10.783	1057.77991	326.89417	558.46747	1617.34119	346.41577	351.36124							
1296	10.792	1061.71423	324.58716	546.92377	1616.83630	352.33600	337.94104							
1297	10.800	1065.68823	322.77765	535.29877	1617.18689	358.69125	326.30316							
1298	10.808	1069.71460	321.45605	523.35449	1617.28113	365.33429	315.57938							
1299	10.817	1073.22559	320.81583	510.65793	1617.49255	371.95706	305.73218							
1300	10.825	1077.32996	320.38596	498.05072	1617.71570	378.33377	296.77567							
